<?xml version="1.0" encoding="utf-8"?>
<!-- Generator: Adobe Illustrator 19.0.0, SVG Export Plug-In . SVG Version: 6.00 Build 0)  -->
<svg version="1.1" id="Layer_1" xmlns="http://www.w3.org/2000/svg" xmlns:xlink="http://www.w3.org/1999/xlink" x="0px" y="0px"
	 viewBox="0 0 250 250" style="enable-background:new 0 0 250 250;" xml:space="preserve">
<style type="text/css">
	.st0{fill:#303EC0;}
	.st1{fill:#FF464A;}
	.st2{fill:#FFFFFF;}
	.st3{fill:#FFC928;}
</style>
<rect id="XMLID_24_" x="0" y="0" class="st0" width="250" height="250"/>
<path id="XMLID_5_" class="st1" d="M91.5,71.9c0-14.7-53.1-14.7-53.1,0v106.2c0,14.7,11.9,26.5,26.5,26.5s26.5-11.9,26.5-26.5V71.9z
	"/>
<path id="XMLID_4_" class="st2" d="M86.7,56.7c-8.7-11.8-25.3-14.4-37.1-5.7c-11.4,8.4-14.3,24.2-6.5,36l73.8,106.3
	c8.2,12.1,24.7,15.3,36.9,7.1c12.1-8.2,15.3-24.7,7.1-36.9c-0.1-0.2-0.3-0.4-0.4-0.5L86.7,56.7z"/>
<path id="XMLID_3_" class="st3" d="M151.3,56.7c-8.6-11.9-25.2-14.6-37-6C102.6,59,99.7,75.1,107.7,87l73.8,106.3
	c8.5,11.9,25.1,14.7,37,6.2c11.7-8.4,14.6-24.6,6.5-36.5L151.3,56.7z"/>
</svg>
